<svg width="144" height="106" viewBox="0 0 144 106" fill="none" xmlns="http://www.w3.org/2000/svg">
<g filter="url(#filter0_d_132_761)">
<path d="M41.5944 0C41.2501 0 40.877 -4.37411e-07 40.5326 0.0286378C30.804 0.257744 18.8656 3.09293 4 9.67972V79.3852C21.4484 71.1373 34.6208 68.7604 45.3826 69.9059C49.3142 70.3068 52.9302 71.1946 56.2591 72.3688L43.3163 49.8019C40.8483 50.8042 38.1794 51.377 35.367 51.377C23.8275 51.377 14.4174 41.9836 14.4174 30.4711C14.4174 18.9585 23.8275 9.56517 35.367 9.56517C46.9036 9.56517 56.3165 18.9585 56.3165 30.4711C56.3165 37.3442 52.9589 43.4442 47.7932 47.2817L64.2372 75.9199C66.0165 76.8364 67.7096 77.8387 69.3741 78.841V9.25015C62.7162 4.18118 54.9677 0.65868 44.6938 0.0859156C43.6894 0.0286391 42.6563 0 41.5944 0ZM102.434 0C101.372 0 100.311 0.0286391 99.3062 0.0859156C89.0323 0.65868 81.3125 4.18118 74.6259 9.25015V78.841C81.4847 74.6599 89.0036 70.9082 98.6174 69.9059C109.379 68.7604 122.58 71.1373 140 79.3852V9.67972C125.163 3.09293 113.225 0.257744 103.496 0.0286378C103.123 0.0286378 102.779 0 102.434 0ZM35.367 14.72C26.6198 14.72 19.583 21.7364 19.583 30.4711C19.583 39.2057 26.6198 46.2221 35.367 46.2221C44.1199 46.2221 51.1509 39.2057 51.1509 30.4711C51.1509 21.7364 44.1199 14.72 35.367 14.72ZM36.027 18.7008H36.8306C29.9143 23.9129 26.8494 30.7575 27.254 38.8048C19.7753 27.6932 27.6185 18.9299 36.027 18.7008ZM39.7865 74.9749C30.6031 75.0608 19.1813 77.7814 4 85.2846V97.4559C21.4484 89.2081 34.6208 86.8311 45.3826 87.9766C50.7204 88.5494 55.3982 89.9527 59.6742 91.7855C58.3254 93.5324 57.0053 95.5944 55.6852 98H70.9812L60.6499 80.0438C55.8861 77.6669 50.8065 75.8627 44.8373 75.2326C43.2302 75.0608 41.537 74.9749 39.7865 74.9749ZM103.18 74.9749C101.803 75.0035 100.483 75.0894 99.1914 75.2326C89.4341 76.2636 82.0874 80.3875 74.6259 85.0842V85.1701C72.8753 84.626 71.096 84.5114 69.3741 84.8264L76.9217 98H89.3193C87.5974 95.6517 85.9329 93.5897 84.2397 91.8142C88.5444 89.9527 93.2509 88.5494 98.6174 87.9766C109.379 86.8311 122.58 89.2081 140 97.4559V85.2846C124.761 77.7528 113.282 75.0035 104.07 74.9749H103.18Z" fill="url(#paint0_linear_132_761)"/>
</g>
<defs>
<filter id="filter0_d_132_761" x="0" y="0" width="144" height="106" filterUnits="userSpaceOnUse" color-interpolation-filters="sRGB">
<feFlood flood-opacity="0" result="BackgroundImageFix"/>
<feColorMatrix in="SourceAlpha" type="matrix" values="0 0 0 0 0 0 0 0 0 0 0 0 0 0 0 0 0 0 127 0" result="hardAlpha"/>
<feOffset dy="4"/>
<feGaussianBlur stdDeviation="2"/>
<feComposite in2="hardAlpha" operator="out"/>
<feColorMatrix type="matrix" values="0 0 0 0 0 0 0 0 0 0 0 0 0 0 0 0 0 0 0.25 0"/>
<feBlend mode="normal" in2="BackgroundImageFix" result="effect1_dropShadow_132_761"/>
<feBlend mode="normal" in="SourceGraphic" in2="effect1_dropShadow_132_761" result="shape"/>
</filter>
<linearGradient id="paint0_linear_132_761" x1="72" y1="0" x2="72" y2="98" gradientUnits="userSpaceOnUse">
<stop stop-color="#351C75"/>
<stop offset="1" stop-color="#8E3179"/>
</linearGradient>
</defs>
</svg>
