<svg width="121" height="106" viewBox="0 0 121 106" fill="none" xmlns="http://www.w3.org/2000/svg">
<g filter="url(#filter0_d_132_763)">
<path d="M52.0336 0.354635C22.3868 0.132986 4.43936 25.9086 4.35948 38.8641C4.27959 51.8197 10.1481 61.58 22.0073 61.6687C33.8665 61.7574 39.7773 65.0387 39.7174 74.7547C39.6376 87.7077 48.4703 97.4902 60.3295 97.5789C98.8713 97.867 116.796 75.331 116.936 52.6619C117.173 13.7978 87.6018 0.620553 52.0336 0.354635ZM44.542 13.2548C45.5165 13.2634 46.48 13.4811 47.3774 13.8953C48.2748 14.3096 49.0885 14.9124 49.7721 15.6692C50.4557 16.426 50.9958 17.3221 51.3616 18.3063C51.7273 19.2905 51.9116 20.3435 51.9038 21.4052C51.8762 25.8797 48.5353 29.4779 44.4422 29.4473C40.3491 29.4167 37.0528 25.7663 37.0804 21.2944C37.0857 20.2326 37.2829 19.1825 37.6608 18.2039C38.0386 17.2252 38.5897 16.3373 39.2826 15.5908C39.9755 14.8442 40.7966 14.2537 41.699 13.8529C42.6014 13.4521 43.5674 13.2488 44.542 13.2548ZM68.2557 13.4321C69.2303 13.4407 70.1937 13.6584 71.0911 14.0726C71.9885 14.4869 72.8022 15.0897 73.4858 15.8465C74.1694 16.6033 74.7095 17.4994 75.0753 18.4836C75.4411 19.4678 75.6253 20.5208 75.6175 21.5825C75.6125 22.6444 75.4155 23.6948 75.0378 24.6738C74.6601 25.6527 74.109 26.5409 73.4161 27.2877C72.7232 28.0345 71.902 28.6253 70.9995 29.0263C70.0969 29.4272 69.1306 29.6306 68.1559 29.6246C67.1813 29.6156 66.2179 29.3976 65.3207 28.9831C64.4234 28.5685 63.6098 27.9655 62.9265 27.2084C62.2431 26.4513 61.7032 25.555 61.3378 24.5707C60.9723 23.5864 60.7884 22.5334 60.7964 21.4717C60.8072 19.3279 61.599 17.2766 62.9978 15.769C64.3966 14.2613 66.2879 13.4208 68.2557 13.4321ZM91.8943 26.5624C92.8692 26.5707 93.8331 26.7882 94.7309 27.2025C95.6287 27.6168 96.4429 28.2197 97.1267 28.9768C97.8106 29.734 98.3509 30.6305 98.7166 31.6151C99.0824 32.5998 99.2665 33.6533 99.2584 34.7154C99.2534 35.7774 99.0563 36.8279 98.6784 37.8069C98.3005 38.7858 97.7492 39.674 97.056 40.4206C96.3628 41.1673 95.5414 41.7577 94.6385 42.1583C93.7357 42.5588 92.7693 42.7616 91.7944 42.7549C90.8199 42.7466 89.8564 42.5292 88.959 42.115C88.0616 41.7008 87.2479 41.098 86.5644 40.3411C85.881 39.5842 85.3411 38.6879 84.9757 37.7036C84.6103 36.7193 84.4266 35.6662 84.435 34.6046C84.4397 33.5427 84.6364 32.4924 85.0138 31.5135C85.3913 30.5346 85.9421 29.6463 86.6349 28.8995C87.3276 28.1526 88.1486 27.5618 89.051 27.1608C89.9535 26.7598 90.9196 26.5565 91.8943 26.5624ZM23.6703 32.5317C24.6447 32.54 25.608 32.7574 26.5052 33.1714C27.4024 33.5854 28.216 34.1879 28.8995 34.9446C29.5829 35.7013 30.1229 36.5972 30.4884 37.5812C30.8539 38.5653 31.0379 39.6181 31.0298 40.6795C31.0022 45.154 27.6613 48.7523 23.5705 48.7217C19.4797 48.6911 16.1811 45.0406 16.2087 40.5687C16.2201 38.4249 17.0125 36.3739 18.4118 34.8668C19.811 33.3596 21.7025 32.5197 23.6703 32.5317ZM60.5268 65.1938C65.439 65.2305 69.3927 69.6069 69.3596 74.9789C69.3265 80.3431 65.3192 84.6626 60.407 84.6259C55.4948 84.5891 51.5412 80.2102 51.5743 74.8459C51.58 73.5715 51.8161 72.3109 52.2691 71.1361C52.7222 69.9612 53.3833 68.8952 54.2147 67.9989C55.0461 67.1025 56.0314 66.3934 57.1145 65.9121C58.1976 65.4308 59.3571 65.1867 60.5268 65.1938Z" fill="url(#paint0_linear_132_763)"/>
</g>
<defs>
<filter id="filter0_d_132_763" x="0.358887" y="0.353516" width="120.579" height="105.229" filterUnits="userSpaceOnUse" color-interpolation-filters="sRGB">
<feFlood flood-opacity="0" result="BackgroundImageFix"/>
<feColorMatrix in="SourceAlpha" type="matrix" values="0 0 0 0 0 0 0 0 0 0 0 0 0 0 0 0 0 0 127 0" result="hardAlpha"/>
<feOffset dy="4"/>
<feGaussianBlur stdDeviation="2"/>
<feComposite in2="hardAlpha" operator="out"/>
<feColorMatrix type="matrix" values="0 0 0 0 0 0 0 0 0 0 0 0 0 0 0 0 0 0 0.25 0"/>
<feBlend mode="normal" in2="BackgroundImageFix" result="effect1_dropShadow_132_763"/>
<feBlend mode="normal" in="SourceGraphic" in2="effect1_dropShadow_132_763" result="shape"/>
</filter>
<linearGradient id="paint0_linear_132_763" x1="60.9274" y1="0.421127" x2="60.201" y2="97.5779" gradientUnits="userSpaceOnUse">
<stop stop-color="#351C75"/>
<stop offset="1" stop-color="#8E3179"/>
</linearGradient>
</defs>
</svg>
